#!OML:ASF F:\VICON\USERDATA\INSTALL\rory3\rory3.ASF
:FULLY-SPECIFIED
:DEGREES
167
root 1.53512 17.0228 11.6496 -145.69 67.7232 197.186
lowerback 1.38559 5.83658 5.88808
upperback -11.4697 9.42986 1.77537
thorax -12.6492 4.39782 -2.47567
lowerneck -13.6172 11.0416 4.47323
upperneck 23.5891 14.9763 0.501792
head 10.038 7.58976 1.39852
rclavicle 2.04748e-014 1.43125e-014
rhumerus 202.229 -65.5479 139.17
rradius 16.275
rwrist 117.243
rhand -8.53615 5.11628
rfingers 7.12502
rthumb 17.3929 -24.1255
lclavicle 2.04748e-014 1.43125e-014
lhumerus 20.073 36.0333 53.5734
lradius 14.3981
lwrist -39.419
lhand -20.7555 29.9657
lfingers 7.12502
lthumb 5.61045 59.8714
rfemur -55.221 -3.37007 21.5811
rtibia 39.7855
rfoot 14.707 5.20799
rtoes -22.6727
lfemur -37.7158 29.6225 -26.8378
ltibia 47.0773
lfoot -31.661 26.1502
ltoes -13.6548
168
root 1.44649 17.134 11.5896 -141.392 71.7957 201.235
lowerback 1.30296 5.40549 5.85292
upperback -11.458 8.78293 1.78286
thorax -12.6295 4.07091 -2.36988
lowerneck -14.0382 10.3855 3.91795
upperneck 23.8368 13.9098 1.34527
head 10.0712 7.12862 1.64986
rclavicle -6.04802e-014 -6.12257e-014
rhumerus 203.282 -68.7196 137.199
rradius 15.9311
rwrist 113.882
rhand -8.22289 4.42582
rfingers 7.12502
rthumb 17.6944 -24.7891
lclavicle -6.04802e-014 -6.12257e-014
lhumerus 20.4041 33.0934 53.5219
lradius 15.0301
lwrist -37.607
lhand -19.1878 29.3042
lfingers 7.12502
lthumb 7.12389 59.1643
rfemur -57.398 -6.00495 25.0722
rtibia 42.1959
rfoot 15.2407 3.80748
rtoes -14.4396
lfemur -36.3259 28.7076 -26.5721
ltibia 46.0026
lfoot -30.336 25.8052
ltoes -12.5385
169
root 1.35832 17.2495 11.5282 -134.299 75.6038 208.213
lowerback 1.55075 4.92358 5.90861
upperback -11.5691 8.1506 1.94625
thorax -12.9785 3.73859 -2.19494
lowerneck -14.2194 9.54677 3.32953
upperneck 24.2936 12.705 1.96147
head 10.1659 6.5887 1.81384
rclavicle -7.98617e-014 -5.1684e-015
rhumerus 204.712 -72.2143 134.903
rradius 15.8793
rwrist 111.627
rhand -6.70416 5.38076
rfingers 7.12502
rthumb 19.1553 -23.6959
lclavicle -7.98617e-014 -5.1684e-015
lhumerus 22.664 35.1691 56.4211
lradius 14.4298
lwrist -41.1001
lhand -18.5383 29.4693
lfingers 7.12502
lthumb 7.75076 59.3073
rfemur -59.4697 -8.26185 28.7078
rtibia 44.7389
rfoot 15.8605 2.2182
rtoes -5.71994
lfemur -34.6576 27.1604 -25.9037
ltibia 44.8463
lfoot -28.6503 25.7991
ltoes -11.9494
170
root 1.2824 17.3688 11.4502 -124.345 79.4907 217.909
lowerback 1.52179 4.35502 5.43915
upperback -11.5962 7.30975 2.07731
thorax -13.1148 3.36898 -1.70616
lowerneck -14.0822 8.68053 2.36888
upperneck 24.3402 11.5514 2.50766
head 10.047 6.0346 1.98397
rclavicle -1.33186e-014 2.78299e-015
rhumerus 204.64 -76.0234 133.904
rradius 15.3957
rwrist 109.079
rhand -6.12298 4.54547
rfingers 7.12502
rthumb 19.7141 -24.4749
lclavicle -1.33186e-014 2.78299e-015
lhumerus 22.3036 32.2672 55.7853
lradius 14.8201
lwrist -37.8727
lhand -17.6642 27.7098
lfingers 7.12502
lthumb 8.59437 57.5149
rfemur -61.5283 -10.5046 31.748
rtibia 47.2279
rfoot 16.7246 -0.297621
rtoes 4.83358
lfemur -33.0473 25.1303 -26.046
ltibia 43.7519
lfoot -25.8774 27.0106
ltoes -17.4458
171
root 1.21525 17.4904 11.387 -100.846 82.0549 241.516
lowerback 1.64688 4.04194 5.69877
upperback -11.4379 6.85766 2.18144
thorax -13.0133 3.11181 -1.68172
lowerneck -14.2408 7.61391 1.92253
upperneck 24.2856 10.0005 2.90873
head 10.0119 5.31367 1.99686
rclavicle 2.68359e-015 -5.96354e-015
rhumerus 207.292 -79.4389 130.121
rradius 14.9301
rwrist 106.829
rhand -5.98688 4.37095
rfingers 7.12502
rthumb 19.845 -24.6359
lclavicle 2.68359e-015 -5.96354e-015
lhumerus 22.7054 29.7385 56.0296
lradius 15.292
lwrist -35.538
lhand -18.1425 29.2441
lfingers 7.12502
lthumb 8.13278 59.0676
rfemur -63.0731 -11.7728 35.3206
rtibia 50.1653
rfoot 17.1036 -3.70357
rtoes 11.0557
lfemur -31.0892 22.8869 -24.9629
ltibia 42.4313
lfoot -23.6058 27.5999
ltoes -19.8121
172
root 1.14758 17.6078 11.264 -64.1459 80.1086 277.243
lowerback 1.03069 4.3724 8.96386
upperback -11.577 7.53688 2.33293
thorax -12.4556 3.14291 -3.28443
lowerneck -14.6386 6.33501 1.91709
upperneck 24.4097 8.03532 3.34761
head 10.1283 4.44552 1.9228
rclavicle -3.4837e-014 -1.43125e-014
rhumerus 216.621 -82.4781 119.781
rradius 14.1683
rwrist 104.198
rhand -5.80115 4.42531
rfingers 7.12502
rthumb 20.0235 -24.563
lclavicle -3.4837e-014 -1.43125e-014
lhumerus 23.8881 27.7966 57.207
lradius 15.5499
lwrist -34.3509
lhand -18.7629 29.3886
lfingers 7.12502
lthumb 7.53406 59.2344
rfemur -64.9961 -11.9883 41.4588
rtibia 52.9531
rfoot 18.55 -6.72222
rtoes 12.4336
lfemur -30.5784 20.5972 -21.9918
ltibia 41.3413
lfoot -22.5987 28.3146
ltoes -18.6677
173
root 1.08372 17.6761 11.205 -32.6943 80.4779 308.632
lowerback 1.22621 3.80778 6.28481
upperback -11.5132 6.42845 1.75821
thorax -12.7527 2.7947 -2.36621
lowerneck -14.7838 5.17288 1.10722
upperneck 24.5236 6.43083 3.87194
head 10.161 3.68684 2.04005
rclavicle -3.94836e-014 -5.78463e-014
rhumerus 233.213 -86.0143 102.236
rradius 13.4537
rwrist 101.452
rhand -5.32989 5.01574
rfingers 7.12502
rthumb 20.4764 -23.9245
lclavicle -3.94836e-014 -5.78463e-014
lhumerus 23.4183 24.4192 56.6374
lradius 16.3443
lwrist -30.6886
lhand -18.2936 29.4426
lfingers 7.12502
lthumb 7.987 59.2717
rfemur -67.5952 -13.6853 41.9609
rtibia 56.7424
rfoot 20.4321 -9.69159
rtoes 13.3178
lfemur -29.0563 17.2322 -24.0791
ltibia 39.9257
lfoot -21.5194 28.3734
ltoes -15.2396
174
root 1.03441 17.7697 11.1447 -17.2916 77.036 323.834
lowerback 1.31198 3.36365 5.92149
upperback -11.4755 5.80211 2.09737
thorax -12.8761 2.5339 -1.73804
lowerneck -14.8381 3.97667 0.00303267
upperneck 24.7993 4.89587 4.27438
head 10.2514 2.92071 2.17833
rclavicle -1.57537e-014 1.8487e-014
rhumerus 150.311 -93.2828 184.323
rradius 12.9483
rwrist 97.7016
rhand -4.41254 5.81938
rfingers 7.12502
rthumb 21.3578 -23.0236
lclavicle -1.57537e-014 1.8487e-014
lhumerus 22.1884 20.0511 54.9929
lradius 17.5267
lwrist -26.136
lhand -18.1106 30.9512
lfingers 7.12502
lthumb 8.16364 60.7735
rfemur -69.3411 -14.5523 44.8465
rtibia 60.3236
rfoot 22.7436 -11.8455
rtoes 13.4711
lfemur -28.0465 15.3891 -23.8071
ltibia 38.789
lfoot -19.4244 28.7645
ltoes -11.5961
175
root 0.998273 17.8623 11.0443 -7.97447 72.5876 332.436
lowerback 0.729777 3.27289 6.28778
upperback -11.3447 5.59013 1.99613
thorax -12.3304 2.3949 -1.97126
lowerneck -15.8841 2.65654 -1.86847
upperneck 25.4863 3.07364 5.83615
head 10.6843 2.09467 2.86694
rclavicle -4.0403e-014 -5.38706e-014
rhumerus 177.227 -99.6824 156.302
rradius 11.9787
rwrist 90.6016
rhand -4.27943 4.99051
rfingers 7.12502
rthumb 21.4856 -23.8379
lclavicle -4.0403e-014 -5.38706e-014
lhumerus 21.2096 13.0823 51.9017
lradius 19.579
lwrist -19.3512
lhand -17.4134 32.5154
lfingers 7.12502
lthumb 8.83645 62.3103
rfemur -71.3761 -14.9673 47.5806
rtibia 64.0411
rfoot 26.4156 -13.6149
rtoes 13.3246
lfemur -27.5609 13.8361 -23.7201
ltibia 37.6129
lfoot -18.5191 28.6925
ltoes -5.56483
176
root 0.979186 17.9371 10.9126 -0.306859 67.8481 339.313
lowerback 0.263938 3.45468 6.5913
upperback -11.4889 5.71039 1.22386
thorax -12.0914 2.36786 -2.94614
lowerneck -15.7345 1.03111 -2.98261
upperneck 25.4119 0.677626 7.20721
head 10.7276 1.05162 3.23185
rclavicle -5.68245e-014 -3.36443e-014
rhumerus 179.642 -106.764 152.847
rradius 10.9944
rwrist 83.4421
rhand -3.85198 4.66653
rfingers 7.12502
rthumb 21.8961 -24.1145
lclavicle -5.68245e-014 -3.36443e-014
lhumerus 23.3681 16.3237 55.4196
lradius 18.5936
lwrist -24.7151
lhand -16.9927 31.5233
lfingers 7.12502
lthumb 9.24234 61.3007
rfemur -73.6037 -15.2879 49.2579
rtibia 67.7875
rfoot 31.5606 -15.5761
rtoes 15.4699
lfemur -27.4785 12.2266 -24.5247
ltibia 36.8681
lfoot -17.394 28.8378
ltoes -4.02066
177
root 0.954472 18.0051 10.8563 1.40901 62.1737 340.514
lowerback 0.632511 3.59116 6.89332
upperback -11.6895 5.9942 1.62908
thorax -12.5589 2.46996 -2.73617
lowerneck -15.0371 -0.276497 -4.06308
upperneck 25.503 -1.08981 7.82464
head 10.7415 0.19982 3.40175
rclavicle 7.18498e-014 1.92821e-014
rhumerus 179.776 -125.67 151.883
rradius 11.1242
rwrist 65.5254
rhand -2.84833 3.54903
rfingers 7.12502
rthumb 22.8595 -25.1162
lclavicle 7.18498e-014 1.92821e-014
lhumerus 23.6689 16.8384 57.292
lradius 18.4159
lwrist -26.383
lhand -16.8932 31.4226
lfingers 7.12502
lthumb 9.33844 61.1957
rfemur -73.9748 -14.2125 51.694
rtibia 71.1794
rfoot 35.2992 -18.2266
rtoes 18.6473
lfemur -27.0436 11.4027 -23.2642
ltibia 36.3111
lfoot -16.0649 29.1902
ltoes -2.87701
178
root 0.947375 18.0606 10.7837 3.80252 56.8338 342.426
lowerback 0.676149 3.18926 6.62986
upperback -11.597 5.45107 2.20726
thorax -12.6055 2.25764 -1.91106
lowerneck -15.1797 -1.27592 -5.6307
upperneck 25.9659 -2.3076 8.42095
head 11.0555 -0.444758 3.74638
rclavicle -7.34339e-015 -2.25745e-014
rhumerus 182.344 -138.668 148.583
rradius 11.6819
rwrist 53.8079
rhand -2.40861 3.21541
rfingers 7.12502
rthumb 23.2814 -25.397
lclavicle -7.34339e-015 -2.25745e-014
lhumerus 23.0366 17.179 57.6598
lradius 18.7823
lwrist -26.2364
lhand -16.7929 31.9555
lfingers 7.12502
lthumb 9.43515 61.7243
rfemur -74.7302 -13.672 53.2921
rtibia 74.849
rfoot 37.6366 -20.9688
rtoes 21.3374
lfemur -26.6188 10.2954 -22.8517
ltibia 35.7184
lfoot -15.0562 29.1197
ltoes -0.165754
179
root 0.959282 18.1069 10.7045 6.61973 51.5345 344.875
lowerback 0.467694 2.93014 6.10088
upperback -11.408 4.97444 2.18782
thorax -12.3124 2.07329 -1.5722
lowerneck -15.3042 -2.54308 -6.66088
upperneck 26.3028 -4.04245 8.95261
head 11.3959 -1.27968 3.89219
rclavicle -1.19345e-013 -6.84813e-014
rhumerus 182.727 -163.753 148.094
rradius 14.5528
rwrist 30.0015
rhand -1.52231 -4.33696
rfingers 7.12502
rthumb 24.1315 -32.8392
lclavicle -1.19345e-013 -6.84813e-014
lhumerus 23.2514 18.1331 58.2621
lradius 18.7258
lwrist -27.5875
lhand -15.6454 30.0624
lfingers 7.12502
lthumb 10.5423 59.7781
rfemur -75.7275 -13.2909 53.9428
rtibia 78.7018
rfoot 39.0345 -23.9518
rtoes 25.5057
lfemur -26.2138 8.90995 -23.2831
ltibia 35.1411
lfoot -15.051 28.6047
ltoes 4.88494
180
root 0.976566 18.1481 10.6431 8.70036 45.9004 346.772
lowerback 0.389528 2.95964 5.42902
upperback -11.225 4.87838 1.97252
thorax -12.0698 2.07152 -1.41365
lowerneck -14.913 -3.8372 -7.18814
upperneck 26.3592 -5.92197 9.30208
head 11.554 -2.16132 3.84072
rclavicle -1.63252e-013 -5.47652e-014
rhumerus 184.606 -162.339 145.921
rradius 13.7788
rwrist 31.146
rhand -0.790193 2.23872
rfingers 7.12502
rthumb 24.8333 -26.1686
lclavicle -1.63252e-013 -5.47652e-014
lhumerus 24.3344 20.0945 60.1284
lradius 18.233
lwrist -30.9156
lhand -14.1337 27.4378
lfingers 7.12502
lthumb 12.0002 57.0738
rfemur -76.2977 -12.692 54.2178
rtibia 82.5755
rfoot 39.2619 -27.1285
rtoes 30.3135
lfemur -25.6007 7.37331 -23.6758
ltibia 34.4599
lfoot -15.0674 28.9673
ltoes 9.14329
181
root 0.994196 18.1829 10.6001 9.92866 40.155 347.825
lowerback 0.363009 2.89293 4.86207
upperback -10.978 4.68684 1.9732
thorax -11.8061 2.02677 -1.07171
lowerneck -14.432 -4.96451 -7.39448
upperneck 26.3543 -7.53067 9.19279
head 11.6262 -2.94865 3.59229
rclavicle -5.889e-015 6.16232e-015
rhumerus 185.538 -171.856 144.878
rradius 15.5422
rwrist 22.1861
rhand -0.165524 1.45801
rfingers 7.12502
rthumb 25.4318 -26.8654
lclavicle -5.889e-015 6.16232e-015
lhumerus 23.8584 19.2557 58.8304
lradius 18.6091
lwrist -29.6698
lhand -13.429 26.4575
lfingers 7.12502
lthumb 12.6796 56.0526
rfemur -76.4412 -12.0949 54.6985
rtibia 86.2908
rfoot 40.2867 -26.9007
rtoes 28.6534
lfemur -24.7849 5.62529 -23.6744
ltibia 33.6992
lfoot -15.8813 29.9137
ltoes 14.233
